<?xml version="1.0" standalone="no"?>
<svg xmlns="http://www.w3.org/2000/svg" viewBox="0 0 177.144 36" width="177.144" height="36"><g fill="#9f4806" color="#9f4806" transform="translate(149.144, 3.9999999999999982) scale(0.2800001)"><svg width="100.0" height="100.0" x="0.0" y="0.0" viewBox="0 0 100 100"><g><path fill-rule="evenodd" clip-rule="evenodd" d="M99.204,54.544c-1.188,0.19-2.377,0.364-3.563,0.566   c-5.327,0.917-10.656,1.845-15.984,2.764c-6.347,1.096-12.693,2.191-19.04,3.285c-5.854,1.01-11.707,2.017-17.56,3.026   c-3.082,0.531-6.162,1.061-9.242,1.596c-0.093,0.014-0.182,0.043-0.321,0.08c0.066,10.295,0.133,20.597,0.2,30.96   c0.869-0.188,1.701-0.362,2.531-0.545c12.892-2.85,25.781-5.702,38.673-8.554c7.376-1.631,14.75-3.262,22.129-4.883   c0.307-0.068,0.395-0.177,0.41-0.457c0.204-3.361,0.419-6.721,0.633-10.08c0.241-3.783,0.488-7.566,0.726-11.348   c0.111-1.762,0.212-3.522,0.321-5.282c0.014-0.202,0.057-0.401,0.088-0.602C99.204,54.895,99.204,54.721,99.204,54.544z"></path><path fill-rule="evenodd" clip-rule="evenodd" d="M69.921,3.255c-0.669,0.055-1.335,0.125-2.008,0.161   c-4.975,0.279-9.951,0.546-14.928,0.825c-5.961,0.333-11.922,0.679-17.883,1.014c-4.445,0.25-8.888,0.489-13.334,0.734   c-2.644,0.145-5.289,0.292-7.935,0.441c-0.167,0.009-0.334,0.036-0.605,0.068c0.238,0.115,0.384,0.188,0.533,0.259   c1.2,0.566,2.188,1.354,2.913,2.414c0.129,0.188,0.244,0.288,0.516,0.271c4.052-0.236,8.104-0.457,12.158-0.685   c4.96-0.278,9.92-0.563,14.88-0.839c3.896-0.218,7.794-0.426,11.69-0.644c4.443-0.247,8.889-0.5,13.33-0.751   c1.535-0.086,3.067-0.171,4.601-0.259c0.092-0.006,0.183-0.024,0.368-0.048c-0.174-0.282-0.304-0.539-0.478-0.766   c-0.718-0.925-1.694-1.544-2.796-2.013c-0.123-0.053-0.24-0.121-0.362-0.182C70.359,3.255,70.142,3.255,69.921,3.255z"></path><path fill-rule="evenodd" clip-rule="evenodd" d="M8.297,48.493c3.664,2.063,7.323,4.126,10.983,6.186   c4.197,2.362,8.393,4.729,12.598,7.076c0.215,0.12,0.531,0.175,0.777,0.134c5.492-0.91,10.979-1.839,16.468-2.762   c6.508-1.096,13.013-2.186,19.521-3.283c5.967-1.004,11.931-2.018,17.896-3.022c2.884-0.486,5.767-0.969,8.676-1.541   c-10.389-3.275-20.781-6.55-31.221-9.84c3.271-9.43,6.533-22.854,9.82-32.333c-0.864,0.046-1.67,0.084-2.472,0.133   c-3.146,0.192-6.29,0.391-9.435,0.585c-3.599,0.222-7.195,0.442-10.794,0.664c-3.051,0.187-6.103,0.374-9.152,0.561   c-3.583,0.219-7.166,0.442-10.748,0.661c-3.114,0.19-6.228,0.377-9.341,0.566c-1.47,0.089-2.939,0.191-4.412,0.258   c-0.329,0.016-0.381,0.186-0.438,0.401c-0.57,2.075-1.137,4.149-1.708,6.223c-2.277,8.281-4.555,20.584-6.835,28.864   C8.441,48.172,8.369,48.315,8.297,48.493z"></path><path fill-rule="evenodd" clip-rule="evenodd" d="M6.033,50.637c0.07,2.424,0.14,4.766,0.207,7.108   c0.082,2.783,0.159,5.564,0.244,8.348c0.105,3.524,0.217,7.049,0.318,10.575c0.009,0.296,0.118,0.505,0.359,0.707   c7.352,6.177,14.697,12.358,22.044,18.539c0.146,0.123,0.301,0.237,0.517,0.407c0-0.682,0.006-1.286,0-1.89   c-0.04-3.733-0.08-7.464-0.125-11.196c-0.061-5.086-0.124-10.175-0.19-15.261c-0.012-0.992-0.057-1.981-0.051-2.972   c0.001-0.315-0.107-0.49-0.393-0.66c-5.499-3.283-10.993-6.574-16.487-9.865c-2.042-1.224-4.083-2.446-6.125-3.668   C6.275,50.764,6.194,50.723,6.033,50.637z"></path><path fill-rule="evenodd" clip-rule="evenodd" d="M5.175,47.03c0.369-1.322,0.717-2.57,1.061-3.818   c2.413-8.744,4.823-21.511,7.234-30.256c0.171-0.621,0.354-1.239,0.507-1.864c0.033-0.135,0.023-0.342-0.065-0.431   c-1.147-1.153-2.422-2.124-4.172-2.347C8.521,8.159,7.532,8.6,6.699,9.391c-0.895,0.849-1.411,1.919-1.931,2.979   c-2.5,5.088-3.764,10.423-3.611,16.025c0.136,5.026,1.422,13.815,3.811,18.327C5.012,46.806,5.078,46.883,5.175,47.03z"></path></g></svg></g><path fill="#bca64c" fill-rule="nonzero" d="M2.42 0.58L2.42 0.58L10.44 0.84L12.70 0.79Q12.77 1.30 12.77 1.85Q12.77 2.40 12.58 2.64Q12.38 2.88 11.88 2.88L11.88 2.88Q11.83 2.88 8.50 2.57L8.50 2.57Q8.40 3.65 7.78 6.26Q7.15 8.88 6.58 11.86Q6 14.83 5.98 17.21L5.98 17.21Q5.04 17.69 2.14 17.69L2.14 17.69L1.97 17.69Q1.97 16.44 3.34 10.25Q4.70 4.06 4.70 2.71L4.70 2.71Q4.70 2.62 4.66 2.38L4.66 2.38L3.70 2.38Q1.73 2.38 0.67 2.98L0.67 2.98Q0.12 2.26 0 0.86L0 0.86Q0.82 0.58 2.42 0.58ZM12.34 17.69L12.34 17.69L12.17 17.69Q12.12 17.50 12.12 16.81Q12.12 16.13 12.77 13.13Q13.42 10.13 13.42 9.70L13.42 9.70Q13.42 8.95 12.74 8.06L12.74 8.06L12.53 7.78L12.55 7.46Q13.85 7.10 16.70 7.10L16.70 7.10Q16.99 7.73 16.99 8.86L16.99 8.86Q17.26 8.42 18.10 7.70Q18.94 6.98 19.82 6.98L19.82 6.98Q21.12 6.98 21.12 9.24L21.12 9.24Q21 9.38 20.80 9.61Q20.59 9.84 19.98 10.25Q19.37 10.66 18.79 10.75L18.79 10.75Q18.77 10.75 18.38 10.10Q18 9.46 17.81 9.46L17.81 9.46Q17.21 9.67 16.75 10.18L16.75 10.18Q15.65 15.14 15.65 16.61L15.65 16.61Q15.65 17.14 15.67 17.35L15.67 17.35Q14.83 17.69 12.34 17.69ZM20.50 13.46L20.50 13.46Q20.50 10.46 22.31 8.72Q24.12 6.98 26.42 6.98L26.42 6.98Q27.84 6.98 28.75 7.68Q29.66 8.38 29.66 9.54Q29.66 10.70 29.08 11.50Q28.49 12.29 27.65 12.72L27.65 12.72Q25.94 13.56 24.53 13.78L24.53 13.78L23.95 13.85Q24.12 16.10 25.80 16.10L25.80 16.10Q26.38 16.10 27.02 15.82Q27.67 15.53 28.03 15.24L28.03 15.24L28.39 14.95L28.97 15.72Q28.78 15.98 28.20 16.42Q27.62 16.85 27.12 17.14L27.12 17.14Q25.73 17.90 24.07 17.90Q22.42 17.90 21.46 16.73Q20.50 15.55 20.50 13.46ZM23.93 12.67Q25.15 12.46 25.87 11.64Q26.59 10.82 26.59 9.53Q26.59 8.23 25.82 8.23L25.82 8.23Q24.91 8.23 24.42 9.78Q23.93 11.33 23.93 12.67L23.93 12.67ZM37.32 7.68L37.32 7.68Q37.37 7.63 37.58 7.06L37.58 7.06Q38.71 7.06 40.61 7.73L40.61 7.73Q40.01 9.72 39.65 11.89Q39.29 14.06 39.29 14.99Q39.29 15.91 39.48 15.91L39.48 15.91Q39.62 15.91 40.54 15.46L40.54 15.46L40.82 15.31L41.26 16.15Q41.04 16.34 40.69 16.63Q40.34 16.92 39.38 17.41Q38.42 17.90 37.66 17.90L37.66 17.90Q36.17 17.90 35.93 16.56L35.93 16.56Q34.39 17.90 33.16 17.90Q31.92 17.90 31.07 16.94Q30.22 15.98 30.22 13.92L30.22 13.92Q30.22 10.70 31.54 8.84Q32.86 6.98 34.73 6.98L34.73 6.98Q36.07 6.98 37.32 7.68ZM34.58 15.86L34.58 15.86Q35.16 15.86 35.88 15.41L35.88 15.41Q36.05 12.02 37.01 8.71L37.01 8.71Q36.29 8.40 35.78 8.40L35.78 8.40Q34.92 8.40 34.31 10.09Q33.70 11.78 33.70 13.82Q33.70 15.86 34.58 15.86ZM48.82 14.47L48.82 14.47Q48.82 15.98 47.48 16.94Q46.15 17.90 44.45 17.90Q42.74 17.90 41.75 17.18Q40.75 16.46 40.75 15.91L40.75 15.91Q40.75 15.58 41.59 14.82Q42.43 14.06 43.01 13.90L43.01 13.90Q44.21 14.78 44.98 16.70L44.98 16.70Q45.86 16.63 45.86 15.86L45.86 15.86Q45.86 14.76 43.92 12.73Q41.98 10.70 41.98 9.50Q41.98 8.30 43.06 7.64Q44.14 6.98 45.66 6.98Q47.18 6.98 47.95 7.52Q48.72 8.06 48.72 8.99Q48.72 9.91 47.26 11.54L47.26 11.54Q47.42 11.71 47.69 11.99Q47.95 12.26 48.38 13.03Q48.82 13.80 48.82 14.47ZM46.51 10.70Q47.52 9.84 47.52 9Q47.52 8.16 46.37 8.16L46.37 8.16Q45.82 8.16 45.46 8.39Q45.10 8.62 45.10 8.90L45.10 8.90Q45.10 9.43 46.15 10.39L46.15 10.39L46.51 10.70ZM50.11 15.80Q50.11 14.78 50.74 12.30Q51.36 9.82 51.36 9.25Q51.36 8.69 50.50 7.75L50.50 7.75L50.52 7.44Q52.15 7.10 54.82 7.10L54.82 7.10Q54.94 7.42 54.94 8.23Q54.94 9.05 54.26 11.71Q53.59 14.38 53.59 15.02Q53.59 15.67 54.07 15.67L54.07 15.67Q54.77 15.67 55.68 15.17L55.68 15.17Q55.78 14.59 56.16 12.96L56.16 12.96Q57.02 9.12 57.02 7.46L57.02 7.46Q57.86 7.13 60.05 7.13L60.05 7.13L60.50 7.13Q60.50 8.26 59.83 11.53Q59.16 14.81 59.16 15.37Q59.16 15.94 59.40 15.94L59.40 15.94Q59.54 15.94 60.77 15.36L60.77 15.36L61.22 16.13Q59.09 17.90 57.48 17.90L57.48 17.90Q56.71 17.90 56.17 17.47Q55.63 17.04 55.56 16.34L55.56 16.34Q53.62 17.93 52.03 17.93L52.03 17.93Q51.19 17.93 50.65 17.38Q50.11 16.82 50.11 15.80ZM62.38 17.69L62.38 17.69L62.21 17.69Q62.16 17.50 62.16 16.81Q62.16 16.13 62.81 13.13Q63.46 10.13 63.46 9.70L63.46 9.70Q63.46 8.95 62.78 8.06L62.78 8.06L62.57 7.78L62.59 7.46Q63.89 7.10 66.74 7.10L66.74 7.10Q67.03 7.73 67.03 8.86L67.03 8.86Q67.30 8.42 68.14 7.70Q68.98 6.98 69.86 6.98L69.86 6.98Q71.16 6.98 71.16 9.24L71.16 9.24Q71.04 9.38 70.84 9.61Q70.63 9.84 70.02 10.25Q69.41 10.66 68.83 10.75L68.83 10.75Q68.81 10.75 68.42 10.10Q68.04 9.46 67.85 9.46L67.85 9.46Q67.25 9.67 66.79 10.18L66.79 10.18Q65.69 15.14 65.69 16.61L65.69 16.61Q65.69 17.14 65.71 17.35L65.71 17.35Q64.87 17.69 62.38 17.69ZM70.54 13.46L70.54 13.46Q70.54 10.46 72.35 8.72Q74.16 6.98 76.46 6.98L76.46 6.98Q77.88 6.98 78.79 7.68Q79.70 8.38 79.70 9.54Q79.70 10.70 79.12 11.50Q78.53 12.29 77.69 12.72L77.69 12.72Q75.98 13.56 74.57 13.78L74.57 13.78L73.99 13.85Q74.16 16.10 75.84 16.10L75.84 16.10Q76.42 16.10 77.06 15.82Q77.71 15.53 78.07 15.24L78.07 15.24L78.43 14.95L79.01 15.72Q78.82 15.98 78.24 16.42Q77.66 16.85 77.16 17.14L77.16 17.14Q75.77 17.90 74.11 17.90Q72.46 17.90 71.50 16.73Q70.54 15.55 70.54 13.46ZM73.97 12.67Q75.19 12.46 75.91 11.64Q76.63 10.82 76.63 9.53Q76.63 8.23 75.86 8.23L75.86 8.23Q74.95 8.23 74.46 9.78Q73.97 11.33 73.97 12.67L73.97 12.67ZM90.67 17.90L90.67 17.90Q88.44 17.90 86.98 16.09Q85.51 14.28 85.51 11.35Q85.51 8.42 86.52 6.01Q87.53 3.60 89.40 2.09Q91.27 0.58 93.40 0.58Q95.52 0.58 96.83 1.54Q98.14 2.50 98.14 3.83Q98.14 5.16 97.34 6.10L97.34 6.10Q96.58 6.10 95.62 5.76Q94.66 5.42 94.18 4.94L94.18 4.94L94.63 2.52Q94.06 2.16 93.12 2.16L93.12 2.16Q91.66 2.16 90.53 4.67Q89.40 7.18 89.40 10.85L89.40 10.85Q89.40 13.27 90.20 14.36Q91.01 15.46 92.16 15.46L92.16 15.46Q94.06 15.46 95.81 13.68L95.81 13.68L96.79 14.57Q96.53 14.95 95.83 15.62Q95.14 16.30 94.46 16.74Q93.79 17.18 92.76 17.54Q91.73 17.90 90.67 17.90ZM97.92 13.46L97.92 13.46Q97.92 10.46 99.73 8.72Q101.54 6.98 103.85 6.98L103.85 6.98Q105.26 6.98 106.18 7.68Q107.09 8.38 107.09 9.54Q107.09 10.70 106.50 11.50Q105.91 12.29 105.07 12.72L105.07 12.72Q103.37 13.56 101.95 13.78L101.95 13.78L101.38 13.85Q101.54 16.10 103.22 16.10L103.22 16.10Q103.80 16.10 104.45 15.82Q105.10 15.53 105.46 15.24L105.46 15.24L105.82 14.95L106.39 15.72Q106.20 15.98 105.62 16.42Q105.05 16.85 104.54 17.14L104.54 17.14Q103.15 17.90 101.50 17.90Q99.84 17.90 98.88 16.73Q97.92 15.55 97.92 13.46ZM101.35 12.67Q102.58 12.46 103.30 11.64Q104.02 10.82 104.02 9.53Q104.02 8.23 103.25 8.23L103.25 8.23Q102.34 8.23 101.84 9.78Q101.35 11.33 101.35 12.67L101.35 12.67ZM109.45 17.90Q108.62 17.90 108.08 17.35Q107.54 16.80 107.54 15.80Q107.54 14.81 108.73 9.44Q109.92 4.08 109.92 1.70L109.92 1.70L109.78 0.65Q111.65 0 113.28 0L113.28 0Q113.52 0.34 113.52 1.18L113.52 1.18Q113.52 3.10 112.31 8.60Q111.10 14.11 111.10 15.01Q111.10 15.91 111.31 15.91L111.31 15.91L112.99 15.31L113.42 16.15Q112.61 16.80 111.44 17.35Q110.28 17.90 109.45 17.90ZM115.84 17.90Q115.01 17.90 114.47 17.35Q113.93 16.80 113.93 15.80Q113.93 14.81 115.12 9.44Q116.30 4.08 116.30 1.70L116.30 1.70L116.16 0.65Q118.03 0 119.66 0L119.66 0Q119.90 0.34 119.90 1.18L119.90 1.18Q119.90 3.10 118.69 8.60Q117.48 14.11 117.48 15.01Q117.48 15.91 117.70 15.91L117.70 15.91L119.38 15.31L119.81 16.15Q118.99 16.80 117.83 17.35Q116.66 17.90 115.84 17.90ZM127.51 7.68L127.51 7.68Q127.56 7.63 127.78 7.06L127.78 7.06Q128.90 7.06 130.80 7.73L130.80 7.73Q130.20 9.72 129.84 11.89Q129.48 14.06 129.48 14.99Q129.48 15.91 129.67 15.91L129.67 15.91Q129.82 15.91 130.73 15.46L130.73 15.46L131.02 15.31L131.45 16.15Q131.23 16.34 130.88 16.63Q130.54 16.92 129.58 17.41Q128.62 17.90 127.85 17.90L127.85 17.90Q126.36 17.90 126.12 16.56L126.12 16.56Q124.58 17.90 123.35 17.90Q122.11 17.90 121.26 16.94Q120.41 15.98 120.41 13.92L120.41 13.92Q120.41 10.70 121.73 8.84Q123.05 6.98 124.92 6.98L124.92 6.98Q126.26 6.98 127.51 7.68ZM124.78 15.86L124.78 15.86Q125.35 15.86 126.07 15.41L126.07 15.41Q126.24 12.02 127.20 8.71L127.20 8.71Q126.48 8.40 125.98 8.40L125.98 8.40Q125.11 8.40 124.50 10.09Q123.89 11.78 123.89 13.82Q123.89 15.86 124.78 15.86ZM132.36 17.69L132.36 17.69L132.19 17.69Q132.14 17.50 132.14 16.81Q132.14 16.13 132.79 13.13Q133.44 10.13 133.44 9.70L133.44 9.70Q133.44 8.95 132.77 8.06L132.77 8.06L132.55 7.78L132.58 7.46Q133.87 7.10 136.73 7.10L136.73 7.10Q137.02 7.73 137.02 8.86L137.02 8.86Q137.28 8.42 138.12 7.70Q138.96 6.98 139.85 6.98L139.85 6.98Q141.14 6.98 141.14 9.24L141.14 9.24Q141.02 9.38 140.82 9.61Q140.62 9.84 140.00 10.25Q139.39 10.66 138.82 10.75L138.82 10.75Q138.79 10.75 138.41 10.10Q138.02 9.46 137.83 9.46L137.83 9.46Q137.23 9.67 136.78 10.18L136.78 10.18Q135.67 15.14 135.67 16.61L135.67 16.61Q135.67 17.14 135.70 17.35L135.70 17.35Q134.86 17.69 132.36 17.69Z" transform="translate(0, 9.036)"></path></svg>